# xmcd
#
# Track frame offsets: 
#        150
#        23520
#        40048
#        63869
#        88377
#        105078
#        128810
#        148457
#        176800
#        205515
#        227782
#        254558
#
# Disc length: 3604 seconds
#
# Revision: 0
# Processed by: cddbd v1.5.2PL0 Copyright (c) Steve Scherf et al.
# Submitted via: ExactAudioCopyFreeDBPlugin 1.0
#
DISCID=a10e120c
DTITLE=陳思捷+朱穎恆 - 朱思馬即
DYEAR=1900
DGENRE=Blues
TTITLE0=Eternal
TTITLE1=New Everlasting Love
TTITLE2=Moments Together
TTITLE3=Night Club
TTITLE4=Pavane
TTITLE5=Carnival Of Venice
TTITLE6=Piano Improvisation
TTITLE7=Gurewich Concerto 1st Movement
TTITLE8=Lily In The Valley
TTITLE9=Unreserved Love
TTITLE10=Sealed With A Kiss
TTITLE11=Encore
EXTD=
EXTT0=
EXTT1=
EXTT2=
EXTT3=
EXTT4=
EXTT5=
EXTT6=
EXTT7=
EXTT8=
EXTT9=
EXTT10=
EXTT11=
PLAYORDER=
